<svg width="27" height="27" viewBox="0 0 27 27" fill="none" xmlns="http://www.w3.org/2000/svg">
<path d="M18.6663 1.33334C17.1946 1.33334 15.9997 2.52824 15.9997 4.00001V12C15.9997 13.4718 17.1946 14.6667 18.6663 14.6667C19.4022 14.6667 19.9997 15.2641 19.9997 16V17.3333C19.9997 18.8051 18.8048 20 17.333 20C16.5971 20 15.9997 20.5975 15.9997 21.3333V24C15.9997 24.7359 16.5971 25.3333 17.333 25.3333C21.7483 25.3333 25.333 21.7487 25.333 17.3333V4.00001C25.333 2.52824 24.1381 1.33334 22.6663 1.33334H18.6663M3.99967 1.33334C2.5279 1.33334 1.33301 2.52824 1.33301 4.00001V12C1.33301 13.4718 2.5279 14.6667 3.99967 14.6667C4.73556 14.6667 5.33301 15.2641 5.33301 16V17.3333C5.33301 18.8051 4.13811 20 2.66634 20C1.93045 20 1.33301 20.5975 1.33301 21.3333V24C1.33301 24.7359 1.93045 25.3333 2.66634 25.3333C7.08166 25.3333 10.6663 21.7487 10.6663 17.3333V4.00001C10.6663 2.52824 9.47145 1.33334 7.99967 1.33334H3.99967" stroke="#C92A2A" stroke-width="2.66667" stroke-linecap="round" stroke-linejoin="round"/>
</svg>
