<svg width="16" height="16" viewBox="0 0 16 16" fill="none" xmlns="http://www.w3.org/2000/svg">
<g clip-path="url(#clip0_263_122)">
<path d="M1.33301 5.99998C2.43684 5.99998 3.33301 6.89615 3.33301 7.99998C3.33301 9.10381 2.43684 9.99998 1.33301 9.99998V11.3333C1.33301 12.0692 1.93045 12.6666 2.66634 12.6666H13.333C14.0689 12.6666 14.6663 12.0692 14.6663 11.3333V9.99998C13.5625 9.99998 12.6663 9.10381 12.6663 7.99998C12.6663 6.89615 13.5625 5.99998 14.6663 5.99998V4.66665C14.6663 3.93076 14.0689 3.33331 13.333 3.33331H2.66634C1.93045 3.33331 1.33301 3.93076 1.33301 4.66665V5.99998M8.66634 3.33331V4.66665M8.66634 11.3333V12.6666M8.66634 7.33331V8.66665" stroke="black" stroke-width="1.33333" stroke-linecap="round" stroke-linejoin="round"/>
</g>
<defs>
<clipPath id="clip0_263_122">
<rect width="16" height="16" fill="white"/>
</clipPath>
</defs>
</svg>
