<svg width="133" height="133" viewBox="0 0 133 133" fill="none" xmlns="http://www.w3.org/2000/svg">
<path d="M125.619 39.6666C126.463 37.7481 126.916 35.6766 126.949 33.5818C131.604 30.9551 131.537 29.1928 130.806 26.9318C130.074 24.6708 129.11 23.1413 123.79 23.6068C122.54 21.9199 120.97 20.4962 119.168 19.4173C119.168 14.0641 117.672 13.2328 115.311 12.7673C112.951 12.3018 111.188 12.3018 108.994 17.2228C106.916 17.4607 104.905 18.1046 103.075 19.1181C98.4869 16.3916 96.9907 17.2893 95.3282 19.1181C93.6657 20.9468 92.9009 22.4431 96.0264 26.7988C95.6186 27.7675 95.2971 28.765 95.0622 29.7913C94.8405 30.8243 94.7186 31.8661 94.6964 32.9168C90.0414 35.5436 90.1079 37.2726 90.8394 39.5668C91.5709 41.8611 92.5684 43.3573 97.8884 42.8918C99.1287 44.5754 100.688 45.9989 102.477 47.0813C102.477 52.4346 103.973 53.2658 106.334 53.7313C108.695 54.1968 110.457 54.1636 112.651 49.2426C114.727 49.0151 116.738 48.3824 118.57 47.3806C123.158 50.0738 124.655 49.1761 126.317 47.3806C127.98 45.5851 128.744 44.0223 125.619 39.6666Z" fill="#FFE236" stroke="#231F20" stroke-width="3.325" stroke-miterlimit="10"/>
<path d="M102.905 33.2486C102.905 35.3474 103.739 37.3602 105.223 38.8443C106.707 40.3283 108.72 41.1621 110.819 41.1621C112.918 41.1621 114.93 40.3283 116.414 38.8443C117.899 37.3602 118.732 35.3474 118.732 33.2486C118.732 31.1498 117.899 29.137 116.414 27.6529C114.93 26.1688 112.918 25.3351 110.819 25.3351C108.72 25.3351 106.707 26.1688 105.223 27.6529C103.739 29.137 102.905 31.1498 102.905 33.2486Z" fill="white" stroke="#231F20" stroke-width="3.325" stroke-miterlimit="10"/>
<path d="M71.7535 27.4966C68.8768 25.6804 65.5462 24.7124 62.1442 24.7036C61.5979 22.2991 60.8299 19.9505 59.85 17.6878C59.2026 16.5396 58.2106 15.6241 57.0144 15.0706C55.8181 14.5172 54.478 14.3539 53.1838 14.604C51.8897 14.854 50.7069 15.5046 49.8028 16.4638C48.8987 17.423 48.3191 18.6421 48.146 19.9488C47.9673 21.6065 47.9673 23.2786 48.146 24.9363C44.1433 25.2229 40.1588 25.7223 36.2092 26.4326C32.2742 27.1788 28.379 28.1221 24.5385 29.2588C24.2751 27.6145 23.8519 25.9997 23.275 24.4376C22.6856 23.23 21.7149 22.25 20.513 21.649C19.3111 21.0481 17.9447 20.8596 16.625 21.1126C15.2401 21.2696 13.9527 21.9024 12.9824 22.9029C12.0122 23.9035 11.4193 25.2098 11.305 26.5988C11.1919 29.056 11.3249 31.5198 11.704 33.9471C8.54138 35.1487 5.77745 37.2101 3.72398 39.8988C1.89523 43.2238 0.930984 56.5238 2.92598 67.5296C4.92098 78.5353 10.5735 90.6716 13.4662 93.0988C17.9217 96.8228 37.905 96.4238 48.8442 94.2626C59.7835 92.1013 78.7692 85.6841 81.4957 80.6301C83.3577 77.3051 84.2887 64.0051 82.2937 52.9993C80.2987 41.9936 74.6795 29.9238 71.7535 27.4966Z" fill="#48EEFF" stroke="#231F20" stroke-width="3.325" stroke-miterlimit="10"/>
<path d="M67.4632 76.4739C70.9544 73.1489 70.3892 67.9286 68.6602 58.3526C66.9312 48.7766 65.5014 43.5896 61.1124 41.7276C58.6852 39.6329 48.0784 40.9296 39.4002 42.5256C30.7219 44.1216 20.3147 46.8814 18.8184 49.8739C15.4934 53.1989 15.8592 58.4191 17.6214 67.9619C19.3837 77.5046 20.9464 82.7249 25.1692 84.5869C27.5964 86.7149 38.1699 85.3849 46.8814 83.8221C55.5929 82.2594 65.9337 79.4331 67.4632 76.4739Z" fill="white" stroke="#231F20" stroke-width="3.325" stroke-miterlimit="10"/>
<path d="M32.2488 49.8735C32.2488 49.8735 32.7808 55.925 34.41 64.836C36.0393 73.747 37.735 79.599 37.735 79.599M54.0275 76.4735C54.0275 76.4735 53.4955 70.422 51.8663 61.511C50.237 52.6 48.5413 46.748 48.5413 46.748" stroke="#231F20" stroke-width="3.325" stroke-miterlimit="10" stroke-linecap="round"/>
<path d="M59.8494 52.8994C59.8494 52.8994 52.4679 53.4314 41.6616 55.4264C35.6412 56.4904 29.6894 57.8537 23.8064 59.5162M26.3666 73.4479C26.3666 73.4479 33.7149 72.9159 44.5544 70.9209C55.3939 68.9259 62.4761 66.8312 62.4761 66.8312" stroke="#231F20" stroke-width="3.325" stroke-miterlimit="10" stroke-linecap="round"/>
<path d="M61.0125 30.1895C69.1255 30.9542 68.7264 32.251 70.3557 35.1437" stroke="white" stroke-width="3.325" stroke-miterlimit="10" stroke-linecap="round"/>
<path d="M59.9861 94.1635C59.9861 103.335 63.6293 112.13 70.1143 118.615C76.5993 125.1 85.3949 128.743 94.5661 128.743C103.737 128.743 112.533 125.1 119.018 118.615C125.503 112.13 129.146 103.335 129.146 94.1635C129.146 84.9923 125.503 76.1967 119.018 69.7117C112.533 63.2267 103.737 59.5835 94.5661 59.5835C85.3949 59.5835 76.5993 63.2267 70.1143 69.7117C63.6293 76.1967 59.9861 84.9923 59.9861 94.1635Z" fill="#FF52A1" stroke="#231F20" stroke-width="3.325" stroke-miterlimit="10"/>
<path d="M71.5193 94.1626C71.5193 97.1886 72.1153 100.185 73.2733 102.98C74.4313 105.776 76.1285 108.316 78.2682 110.456C80.4079 112.596 82.948 114.293 85.7436 115.451C88.5393 116.609 91.5356 117.205 94.5615 117.205C97.5875 117.205 100.584 116.609 103.379 115.451C106.175 114.293 108.715 112.596 110.855 110.456C112.995 108.316 114.692 105.776 115.85 102.98C117.008 100.185 117.604 97.1886 117.604 94.1626C117.604 88.0514 115.176 82.1905 110.855 77.8693C106.534 73.548 100.673 71.1204 94.5615 71.1204C88.4504 71.1204 82.5895 73.548 78.2682 77.8693C73.9469 82.1905 71.5193 88.0514 71.5193 94.1626Z" fill="white" stroke="#231F20" stroke-width="3.325" stroke-miterlimit="10"/>
<path d="M97.2917 92.5341C97.857 85.3854 96.4938 80.1984 94.2993 79.9989C92.1048 79.7994 90.0432 82.8584 89.478 89.7744C88.7797 98.4526 92.3708 100.148 98.1895 100.647C104.008 101.146 107.832 99.6496 107.998 97.3221C108.164 94.9946 106.037 93.0994 97.2917 92.5341Z" fill="#FF52A1" stroke="#231F20" stroke-width="3.325" stroke-miterlimit="10"/>
<path d="M110.822 69.2583C114.222 70.3961 117.07 72.7696 118.802 75.9083" stroke="white" stroke-width="3.325" stroke-miterlimit="10" stroke-linecap="round"/>
<path d="M33.3855 114.246C33.3855 115.904 34.0441 117.494 35.2164 118.666C36.3887 119.838 37.9786 120.497 39.6365 120.497C41.2944 120.497 42.8843 119.838 44.0566 118.666C45.2289 117.494 45.8875 115.904 45.8875 114.246C45.8875 112.588 45.2289 110.998 44.0566 109.826C42.8843 108.654 41.2944 107.995 39.6365 107.995C37.9786 107.995 36.3887 108.654 35.2164 109.826C34.0441 110.998 33.3855 112.588 33.3855 114.246ZM74.6155 9.64148C74.6155 11.0877 75.19 12.4747 76.2127 13.4973C77.2353 14.52 78.6223 15.0945 80.0685 15.0945C81.5147 15.0945 82.9017 14.52 83.9244 13.4973C84.947 12.4747 85.5215 11.0877 85.5215 9.64148C85.5215 8.19525 84.947 6.80826 83.9244 5.78562C82.9017 4.76299 81.5147 4.18848 80.0685 4.18848C78.6223 4.18848 77.2353 4.76299 76.2127 5.78562C75.19 6.80826 74.6155 8.19525 74.6155 9.64148Z" fill="#FFE236" stroke="#231F20" stroke-width="3.325" stroke-miterlimit="10" stroke-linecap="round"/>
</svg>
